<svg xmlns="http://www.w3.org/2000/svg" xmlns:lucid="lucid" width="221.57" height="168.96"><g lucid:page-tab-id="0_0"><path d="M163.53 84.52c0 27.44-23.6 49.68-52.74 49.68-29.15 0-52.76-22.24-52.76-49.68s23.6-49.68 52.75-49.68c29.12 0 52.73 22.24 52.73 49.68z" stroke="#b8f5ed" stroke-width="10" fill-opacity="0"/><path d="M138.37 84.52c0 14.35-12.35 25.98-27.58 25.98-15.25 0-27.6-11.63-27.6-25.98s12.35-25.98 27.6-25.98c15.22 0 27.57 11.63 27.57 25.98z" stroke="#b8f5ed" stroke-width="10" fill-opacity="0"/><g fill="none"><path d="M48.26 158.44a6 6 0 0 1-6 6H29.5a6 6 0 0 1-6-6v-148a6 6 0 0 1 6-6h12.76a6 6 0 0 1 6 6z"/><path d="M48.26 4.44c-5.52 0-10 4.48-10 10v60c0 5.53-4.48 10-10 10 5.52 0 10 4.48 10 10v60c0 5.53 4.48 10 10 10" stroke="#b8f5ed" stroke-width="9"/></g><path d="M173.3 10.52a6 6 0 0 1 6-6H192a6 6 0 0 1 6 6v148a6 6 0 0 1-6 6h-12.7a6 6 0 0 1-6-6z" fill="none"/><path d="M173.3 164.52c5.53 0 10-4.48 10-10v-60c0-5.52 4.5-10 10-10-5.5 0-10-4.48-10-10v-60c0-5.52-4.47-10-10-10" stroke="#b8f5ed" stroke-width="9" fill="none"/></g></svg>